<?xml version="1.0" ?><!DOCTYPE svg  PUBLIC '-//W3C//DTD SVG 1.1//EN'  'http://www.w3.org/Graphics/SVG/1.1/DTD/svg11.dtd'><svg enable-background="new 0 0 80 80" height="80px" id="Layer_1" version="1.1" viewBox="0 0 80 80" width="80px" xml:space="preserve" xmlns="http://www.w3.org/2000/svg" xmlns:xlink="http://www.w3.org/1999/xlink"><polygon fill="none" points="29,54 13,60 13,18 29,12 " stroke="#5E5E82" stroke-miterlimit="10" stroke-width="2"/><polyline fill="none" points="45,18 61,12 61,26 " stroke="#5E5E82" stroke-miterlimit="10" stroke-width="2"/><polyline fill="none" points="37,57 29,54 29,12 45,18 45,25 " stroke="#5E5E82" stroke-miterlimit="10" stroke-width="2"/><g><path d="M69,44.5C69,53.1,56,71,53.5,71   C51.2,71,38,53.1,38,44.5S44.9,29,53.5,29S69,35.9,69,44.5z" fill="none" stroke="#5E5E82" stroke-miterlimit="10" stroke-width="2"/><path d="M53.5,54c-5.2,0-9.5-4.3-9.5-9.5s4.3-9.5,9.5-9.5   s9.5,4.3,9.5,9.5S58.7,54,53.5,54z" fill="none" stroke="#5E5E82" stroke-miterlimit="10" stroke-width="2"/></g></svg>